<?xml version="1.0" encoding="utf-8"?>
<!-- Generator: Adobe Illustrator 23.0.1, SVG Export Plug-In . SVG Version: 6.00 Build 0)  -->
<svg version="1.1" id="Layer_1" xmlns="http://www.w3.org/2000/svg" xmlns:xlink="http://www.w3.org/1999/xlink" x="0px" y="0px"
	 viewBox="0 0 1176 277" style="enable-background:new 0 0 1176 277;" xml:space="preserve">
<g>
	<g>
		<path style="fill:#383838;" d="M389.31,183.2c5.16,8.08,16.15,14.14,29.84,14.14c14.13,0,20.19-5.38,20.19-12.34
			c0-3.81-2.69-6.96-6.51-8.97c-2.47-1.57-7.18-3.14-10.55-4.26s-10.1-3.14-13.91-4.71c-18.17-6.51-27.82-15.71-27.82-31.86
			c0-10.54,3.81-18.62,11.44-24.68c7.85-6.06,17.28-9.2,28.49-9.2c15.93,0,28.05,5.61,36.57,16.6l-15.03,15.93
			c-4.94-6.28-12.34-9.42-21.99-9.42c-8.3,0-13.69,4.04-13.69,10.1c0,3.81,2.02,5.83,5.16,7.85c1.79,1.12,6.28,2.92,9.2,4.04
			c3.37,0.9,9.65,3.14,14.14,4.71c20.87,7.4,30.29,17.5,30.29,33.66c0,20.87-15.71,35.9-46.44,35.9c-22.66,0-39.49-8.75-46.67-22.89
			L389.31,183.2z"/>
		<path style="fill:#383838;" d="M475.69,75.5c0-8.97,7.18-15.93,16.15-15.93c8.75,0,15.93,6.96,15.93,15.93
			s-7.18,15.93-15.93,15.93C482.87,91.43,475.69,84.48,475.69,75.5z M478.38,217.75V104.67h26.92v113.08H478.38z"/>
		<path style="fill:#383838;" d="M613.45,121.05V61.37h26.92v156.38h-26.92v-16.38c-3.81,10.99-17.5,18.85-36.12,18.85
			c-15.93,0-29.39-5.61-40.39-16.83c-10.77-11.44-16.15-25.35-16.15-42.18s5.38-30.74,16.15-41.96
			c10.99-11.44,24.46-17.05,40.39-17.05C595.95,102.2,609.63,110.05,613.45,121.05z M605.37,185.89c6.73-6.51,10.1-14.81,10.1-24.68
			s-3.37-18.17-10.1-24.68c-6.51-6.51-14.81-9.87-24.46-9.87s-17.5,3.37-24.01,9.87c-6.28,6.51-9.42,14.81-9.42,24.68
			s3.14,18.17,9.42,24.68c6.51,6.51,14.36,9.87,24.01,9.87S598.86,192.4,605.37,185.89z"/>
		<path style="fill:#383838;" d="M655.63,161.21c0-17.95,5.61-32.31,16.6-43.3c11.22-10.99,25.35-16.38,42.63-16.38
			c16.38,0,29.84,5.38,40.16,16.38c10.55,10.99,15.71,24.46,15.71,40.61c0,3.37-0.22,6.51-0.45,9.42h-87.95
			c0.9,17.95,14.13,29.62,34.1,29.62c11.67,0,21.76-4.26,30.51-13.01l16.15,15.71c-12.79,13.46-28.5,20.19-47.57,20.19
			c-17.72,0-32.31-5.38-43.3-15.93c-10.99-10.55-16.6-24.68-16.6-42.41v-0.9H655.63z M743.36,149.09c0-6.73-2.92-12.56-8.53-17.28
			c-5.61-4.94-12.12-7.4-19.97-7.4c-8.3,0-15.71,2.47-21.76,7.18c-6.06,4.71-9.42,10.54-10.1,17.5H743.36z"/>
		<path style="fill:#383838;" d="M792.94,217.75v-88.62h-14.58v-24.46h14.58v-43.3h26.92v43.3h24.46v24.46h-24.46v88.62H792.94z"/>
		<path style="fill:#383838;" d="M857.34,217.75V104.67h26.7v16.83c5.38-11.89,17.72-19.07,33.66-19.07c3.14,0,5.83,0.22,8.08,0.67
			v26.03c-3.37-0.67-7.18-1.12-11.22-1.12c-18.62,0-30.51,11.67-30.51,30.29v59.46h-26.71V217.75z"/>
		<path style="fill:#383838;" d="M929.14,161.21c0-17.95,5.61-32.31,16.6-43.3c11.22-10.99,25.35-16.38,42.63-16.38
			c16.38,0,29.84,5.38,40.16,16.38c10.55,10.99,15.71,24.46,15.71,40.61c0,3.37-0.22,6.51-0.45,9.42h-87.95
			c0.9,17.95,14.13,29.62,34.1,29.62c11.67,0,21.76-4.26,30.51-13.01l16.15,15.71c-12.79,13.46-28.5,20.19-47.57,20.19
			c-17.72,0-32.31-5.38-43.3-15.93c-10.99-10.55-16.6-24.68-16.6-42.41v-0.9H929.14z M1016.86,149.09c0-6.73-2.92-12.56-8.53-17.28
			c-5.61-4.94-12.12-7.4-19.97-7.4c-8.3,0-15.71,2.47-21.76,7.18c-6.06,4.71-9.42,10.54-10.1,17.5H1016.86z"/>
		<path style="fill:#383838;" d="M1058.82,217.75V61.37h26.7v91.32l41.73-48.01h30.96l-44.2,50.48l48.91,62.6h-30.51l-35.67-45.55
			l-11.22,12.56v32.98H1058.82z"/>
	</g>
	<g>
		<g>
			<path style="fill:#866EEA;" d="M153.35,209.9l-20,14.55c-10.55,7.67-12.88,22.44-5.21,32.99c4.62,6.35,11.82,9.72,19.12,9.72
				c4.82,0,9.68-1.47,13.87-4.52l14.67-10.67L153.35,209.9z"/>
			<path style="fill:#866EEA;" d="M299.83,132.54c-7.67-10.55-22.44-12.88-32.99-5.2l-78.83,57.34L221.12,219l73.5-53.47
				C305.17,157.87,307.5,143.1,299.83,132.54z"/>
		</g>
		<g>
			<path style="fill:#FFCC5A;" d="M169.94,165.95l32.64-22.6c10.72-7.43,13.4-22.14,5.97-32.86c-7.42-10.72-22.14-13.39-32.86-5.98
				L136.7,131.5L169.94,165.95z"/>
			<path style="fill:#FFCC5A;" d="M118.3,144.25L22.18,210.8c-10.72,7.43-13.4,22.14-5.97,32.86c4.58,6.63,11.95,10.18,19.44,10.18
				c4.64,0,9.32-1.36,13.42-4.2l91.63-63.44L118.3,144.25z"/>
		</g>
		<g>
			<path style="fill:#FF4D84;" d="M118.55,112.69l82.55-60.05c10.55-7.67,12.88-22.44,5.21-32.99s-22.44-12.87-32.99-5.2
				L85.44,78.36L118.55,112.69z"/>
			<path style="fill:#FF4D84;" d="M83.77,79.58l-43.93,31.96c-10.55,7.67-12.88,22.44-5.21,32.99c4.62,6.35,11.82,9.72,19.12,9.72
				c4.82,0,9.68-1.47,13.87-4.52l38.61-28.08L83.77,79.58z"/>
		</g>
	</g>
</g>
</svg>
