<?xml version="1.0" standalone="no"?>
<!DOCTYPE svg PUBLIC "-//W3C//DTD SVG 20010904//EN"
 "http://www.w3.org/TR/2001/REC-SVG-20010904/DTD/svg10.dtd">
<svg version="1.0" xmlns="http://www.w3.org/2000/svg"
 width="700.000000pt" height="700.000000pt" viewBox="0 0 700.000000 700.000000"
 preserveAspectRatio="xMidYMid meet">
<metadata>
Created by potrace 1.11, written by Peter Selinger 2001-2013
</metadata>
<g transform="translate(0.000000,700.000000) scale(0.100000,-0.100000)"
fill="#000000" stroke="none">
<path d="M4090 6565 c-36 -8 -94 -29 -130 -48 -52 -26 -566 -394 -950 -678
-36 -26 -216 -157 -400 -291 -738 -536 -830 -603 -830 -608 0 -6 70 -79 354
-373 105 -109 245 -255 312 -324 l120 -125 250 180 c137 100 254 185 259 189
6 5 334 244 730 531 396 288 746 546 778 573 71 63 129 147 158 230 28 83 32
108 33 199 1 242 -164 462 -403 536 -70 22 -205 26 -281 9z"/>
<path d="M1459 4709 c-151 -110 -285 -208 -299 -217 -158 -108 -526 -385 -562
-425 -88 -95 -142 -230 -147 -368 -8 -237 149 -461 383 -546 140 -50 336 -29
466 49 51 31 929 666 958 692 10 10 -15 64 -129 277 -78 145 -169 316 -202
379 -33 63 -68 129 -78 145 -9 17 -32 59 -50 95 -18 36 -40 77 -49 92 l-17 28
-274 -201z"/>
<path d="M4190 4410 c-130 -16 -176 -40 -505 -269 -447 -310 -531 -368 -603
-417 -39 -27 -71 -54 -70 -60 2 -7 104 -116 228 -244 124 -128 247 -256 274
-284 27 -28 102 -105 167 -172 l118 -120 403 278 c449 311 502 356 562 481 19
41 38 88 41 104 2 15 7 39 10 53 16 69 2 200 -31 288 -59 158 -189 283 -349
337 -44 15 -71 19 -165 29 -14 1 -50 -1 -80 -4z"/>
<path d="M6418 3874 c-2 -1 -23 -4 -48 -7 -64 -7 -143 -34 -198 -66 -37 -22
-1837 -1326 -1919 -1390 -21 -17 -21 -18 70 -113 130 -135 494 -512 607 -628
l95 -98 210 154 c116 84 220 161 232 169 12 9 111 81 220 161 109 79 209 152
222 161 13 10 218 159 455 331 237 172 456 337 487 367 36 35 73 85 100 137
l44 83 3 154 c4 138 2 159 -18 215 -67 184 -240 329 -430 361 -45 8 -128 14
-132 9z"/>
<path d="M2475 3303 c-109 -75 -183 -127 -755 -523 -272 -189 -537 -372 -588
-407 -191 -132 -442 -306 -605 -419 -92 -64 -195 -135 -229 -158 -120 -80
-200 -177 -244 -293 -44 -116 -48 -202 -19 -348 14 -68 79 -178 146 -246 106
-108 221 -158 374 -165 160 -6 251 26 435 155 52 36 115 79 140 96 25 16 47
32 50 35 3 3 93 66 200 140 107 74 215 148 240 165 25 17 88 61 140 97 52 36
190 131 305 211 116 80 266 184 335 232 644 446 690 478 690 489 0 7 -101 199
-210 401 -15 28 -49 91 -75 140 -26 50 -62 117 -80 150 -42 77 -124 232 -142
267 -8 15 -17 30 -21 32 -4 2 -43 -21 -87 -51z"/>
<path d="M3148 1608 c-310 -227 -351 -265 -403 -381 -36 -80 -52 -145 -54
-225 -6 -186 78 -356 233 -474 153 -118 389 -139 573 -51 63 29 439 300 436
313 -2 5 -49 96 -106 202 -57 106 -128 238 -157 293 -62 118 -110 207 -156
291 -18 33 -50 93 -70 132 -20 40 -41 72 -48 72 -6 0 -118 -78 -248 -172z"/>
</g>
</svg>
